<mxfile host="app.diagrams.net" modified="2024-06-03T16:38:05.104Z" agent="Mozilla/5.0 (Windows NT 10.0; Win64; x64) AppleWebKit/537.36 (KHTML, like Gecko) Chrome/125.0.0.0 Safari/537.36 Edg/125.0.0.0" version="24.4.13" etag="rBt7WSJQV-aC9nVuoztj" type="github">
  <diagram name="Page-1" id="PcJh3jB89L1XBfVH9KrV">
    <mxGraphModel>
      <root>
        <mxCell id="0" />
        <mxCell id="1" parent="0" />
      </root>
    </mxGraphModel>
  </diagram>
</mxfile>
